<svg xmlns="http://www.w3.org/2000/svg" viewBox="0 0 1024 1024">
  <defs>
    <linearGradient id="bg" x1="0" y1="0" x2="1" y2="1">
      <stop offset="0" stop-color="#0B1220"/>
      <stop offset="1" stop-color="#123A4A"/>
    </linearGradient>
    <linearGradient id="paddle" x1="0" y1="0" x2="0.3" y2="1">
      <stop offset="0" stop-color="#9CFF8D"/>
      <stop offset="1" stop-color="#1FBE96"/>
    </linearGradient>
    <radialGradient id="ballGrad" cx="35%" cy="32%" r="75%">
      <stop offset="0" stop-color="#FFF6B8"/>
      <stop offset="1" stop-color="#FFC93C"/>
    </radialGradient>
    <mask id="holes">
      <rect x="-160" y="-268" width="320" height="360" rx="140" fill="#fff"/>
      <g fill="#000">
        <circle cx="-88" cy="-210" r="13"/>
        <circle cx="-30" cy="-222" r="13"/>
        <circle cx="30" cy="-222" r="13"/>
        <circle cx="88" cy="-210" r="13"/>
        <circle cx="-110" cy="-160" r="13"/>
        <circle cx="-55" cy="-168" r="13"/>
        <circle cx="0" cy="-172" r="13"/>
        <circle cx="55" cy="-168" r="13"/>
        <circle cx="110" cy="-160" r="13"/>
        <circle cx="-120" cy="-105" r="13"/>
        <circle cx="-65" cy="-112" r="13"/>
        <circle cx="-8" cy="-116" r="13"/>
        <circle cx="50" cy="-112" r="13"/>
        <circle cx="120" cy="-105" r="13"/>
        <circle cx="-118" cy="-48" r="13"/>
        <circle cx="-62" cy="-54" r="13"/>
        <circle cx="-5" cy="-58" r="13"/>
        <circle cx="52" cy="-54" r="13"/>
        <circle cx="118" cy="-48" r="13"/>
        <circle cx="-100" cy="8" r="13"/>
        <circle cx="-45" cy="2" r="13"/>
        <circle cx="15" cy="0" r="13"/>
        <circle cx="75" cy="4" r="13"/>
        <circle cx="-70" cy="58" r="13"/>
        <circle cx="-10" cy="55" r="13"/>
        <circle cx="50" cy="58" r="13"/>
      </g>
    </mask>
  </defs>

  <rect width="1024" height="1024" rx="220" fill="url(#bg)"/>

  <g transform="translate(512,460)">
    <ellipse cx="14" cy="36" rx="175" ry="225" fill="#000" opacity="0.22"/>

    <rect x="-160" y="-268" width="320" height="360" rx="140" fill="url(#paddle)" mask="url(#holes)"/>
    <rect x="-160" y="-268" width="320" height="360" rx="140" fill="none" stroke="#0B1220" stroke-width="8" opacity="0.14"/>

    <rect x="-38" y="90" width="76" height="205" rx="34" fill="url(#paddle)"/>
    <rect x="-38" y="88" width="76" height="30" rx="14" fill="#0B1220" opacity="0.12"/>
    <rect x="-30" y="255" width="60" height="34" rx="16" fill="#0B1220" opacity="0.4"/>

    <circle cx="222" cy="255" r="82" fill="url(#ballGrad)"/>
    <path d="M 222 174 Q 262 255 222 336" stroke="#0B1220" stroke-width="7" fill="none" opacity="0.25"/>
    <path d="M 222 174 Q 182 255 222 336" stroke="#0B1220" stroke-width="7" fill="none" opacity="0.25"/>
  </g>
</svg>
